<svg width="967" height="435" xmlns="http://www.w3.org/2000/svg" xmlns:xlink="http://www.w3.org/1999/xlink" xml:space="preserve" overflow="hidden"><defs><linearGradient x1="1314.29" y1="452.572" x2="1314.29" y2="848.572" gradientUnits="userSpaceOnUse" spreadMethod="reflect" id="fill0"><stop offset="0" stop-color="#0070C0" stop-opacity="1"/><stop offset="0.00900901" stop-color="#016FBF" stop-opacity="1"/><stop offset="0.018018" stop-color="#036FBF" stop-opacity="1"/><stop offset="0.027027" stop-color="#056FBF" stop-opacity="1"/><stop offset="0.036036" stop-color="#076FBF" stop-opacity="1"/><stop offset="0.045045" stop-color="#096FBF" stop-opacity="1"/><stop offset="0.0540541" stop-color="#0B6FBF" stop-opacity="1"/><stop offset="0.0630631" stop-color="#0C6FBF" stop-opacity="1"/><stop offset="0.0720721" stop-color="#0E6FBF" stop-opacity="1"/><stop offset="0.0810811" stop-color="#106FBF" stop-opacity="1"/><stop offset="0.0900901" stop-color="#126FBF" stop-opacity="1"/><stop offset="0.0990991" stop-color="#136FBF" stop-opacity="1"/><stop offset="0.108108" stop-color="#156FBF" stop-opacity="1"/><stop offset="0.117117" stop-color="#176EBF" stop-opacity="1"/><stop offset="0.126126" stop-color="#196EBF" stop-opacity="1"/><stop offset="0.135135" stop-color="#1A6EBF" stop-opacity="1"/><stop offset="0.144144" stop-color="#1C6EBF" stop-opacity="1"/><stop offset="0.153153" stop-color="#1D6EBF" stop-opacity="1"/><stop offset="0.162162" stop-color="#1F6DBE" stop-opacity="1"/><stop offset="0.171171" stop-color="#216DBE" stop-opacity="1"/><stop offset="0.18018" stop-color="#226DBE" stop-opacity="1"/><stop offset="0.189189" stop-color="#246DBE" stop-opacity="1"/><stop offset="0.198198" stop-color="#256CBE" stop-opacity="1"/><stop offset="0.207207" stop-color="#276CBE" stop-opacity="1"/><stop offset="0.216216" stop-color="#296CBE" stop-opacity="1"/><stop offset="0.225225" stop-color="#2A6CBE" stop-opacity="1"/><stop offset="0.234234" stop-color="#2C6BBD" stop-opacity="1"/><stop offset="0.243243" stop-color="#2D6BBD" stop-opacity="1"/><stop offset="0.252252" stop-color="#2F6BBD" stop-opacity="1"/><stop offset="0.261261" stop-color="#306ABD" stop-opacity="1"/><stop offset="0.27027" stop-color="#316ABD" stop-opacity="1"/><stop offset="0.279279" stop-color="#336ABD" stop-opacity="1"/><stop offset="0.288288" stop-color="#3469BC" stop-opacity="1"/><stop offset="0.297297" stop-color="#3669BC" stop-opacity="1"/><stop offset="0.306306" stop-color="#3769BC" stop-opacity="1"/><stop offset="0.315315" stop-color="#3868BC" stop-opacity="1"/><stop offset="0.324324" stop-color="#3A68BC" stop-opacity="1"/><stop offset="0.333333" stop-color="#3B67BB" stop-opacity="1"/><stop offset="0.342342" stop-color="#3C67BB" stop-opacity="1"/><stop offset="0.351351" stop-color="#3E66BB" stop-opacity="1"/><stop offset="0.36036" stop-color="#3F66BB" stop-opacity="1"/><stop offset="0.369369" stop-color="#4066BB" stop-opacity="1"/><stop offset="0.378378" stop-color="#4265BA" stop-opacity="1"/><stop offset="0.387387" stop-color="#4365BA" stop-opacity="1"/><stop offset="0.396396" stop-color="#4464BA" stop-opacity="1"/><stop offset="0.405405" stop-color="#4564BA" stop-opacity="1"/><stop offset="0.414414" stop-color="#4663B9" stop-opacity="1"/><stop offset="0.423423" stop-color="#4863B9" stop-opacity="1"/><stop offset="0.432432" stop-color="#4962B9" stop-opacity="1"/><stop offset="0.441441" stop-color="#4A62B9" stop-opacity="1"/><stop offset="0.45045" stop-color="#4B61B8" stop-opacity="1"/><stop offset="0.459459" stop-color="#4C61B8" stop-opacity="1"/><stop offset="0.468468" stop-color="#4D60B8" stop-opacity="1"/><stop offset="0.477477" stop-color="#4E5FB7" stop-opacity="1"/><stop offset="0.486486" stop-color="#4F5FB7" stop-opacity="1"/><stop offset="0.495495" stop-color="#505EB7" stop-opacity="1"/><stop offset="0.504505" stop-color="#515EB7" stop-opacity="1"/><stop offset="0.513514" stop-color="#525DB6" stop-opacity="1"/><stop offset="0.522523" stop-color="#535DB6" stop-opacity="1"/><stop offset="0.531532" stop-color="#545CB6" stop-opacity="1"/><stop offset="0.540541" stop-color="#555BB5" stop-opacity="1"/><stop offset="0.54955" stop-color="#565BB5" stop-opacity="1"/><stop offset="0.558559" stop-color="#575AB5" stop-opacity="1"/><stop offset="0.567568" stop-color="#5859B4" stop-opacity="1"/><stop offset="0.576577" stop-color="#5959B4" stop-opacity="1"/><stop offset="0.585586" stop-color="#5A58B4" stop-opacity="1"/><stop offset="0.594595" stop-color="#5B57B3" stop-opacity="1"/><stop offset="0.603604" stop-color="#5C57B3" stop-opacity="1"/><stop offset="0.612613" stop-color="#5D56B3" stop-opacity="1"/><stop offset="0.621622" stop-color="#5D55B2" stop-opacity="1"/><stop offset="0.630631" stop-color="#5E55B2" stop-opacity="1"/><stop offset="0.63964" stop-color="#5F54B2" stop-opacity="1"/><stop offset="0.648649" stop-color="#6053B1" stop-opacity="1"/><stop offset="0.657658" stop-color="#6052B1" stop-opacity="1"/><stop offset="0.666667" stop-color="#6152B1" stop-opacity="1"/><stop offset="0.675676" stop-color="#6251B0" stop-opacity="1"/><stop offset="0.684685" stop-color="#6350B0" stop-opacity="1"/><stop offset="0.693694" stop-color="#634FAF" stop-opacity="1"/><stop offset="0.702703" stop-color="#644EAF" stop-opacity="1"/><stop offset="0.711712" stop-color="#654EAF" stop-opacity="1"/><stop offset="0.720721" stop-color="#654DAE" stop-opacity="1"/><stop offset="0.72973" stop-color="#664CAE" stop-opacity="1"/><stop offset="0.738739" stop-color="#664BAD" stop-opacity="1"/><stop offset="0.747748" stop-color="#674AAD" stop-opacity="1"/><stop offset="0.756757" stop-color="#684AAD" stop-opacity="1"/><stop offset="0.765766" stop-color="#6849AC" stop-opacity="1"/><stop offset="0.774775" stop-color="#6948AC" stop-opacity="1"/><stop offset="0.783784" stop-color="#6947AB" stop-opacity="1"/><stop offset="0.792793" stop-color="#6A46AB" stop-opacity="1"/><stop offset="0.801802" stop-color="#6A45AA" stop-opacity="1"/><stop offset="0.810811" stop-color="#6B44AA" stop-opacity="1"/><stop offset="0.81982" stop-color="#6B43A9" stop-opacity="1"/><stop offset="0.828829" stop-color="#6B42A9" stop-opacity="1"/><stop offset="0.837838" stop-color="#6C42A9" stop-opacity="1"/><stop offset="0.846847" stop-color="#6C41A8" stop-opacity="1"/><stop offset="0.855856" stop-color="#6D40A8" stop-opacity="1"/><stop offset="0.864865" stop-color="#6D3FA7" stop-opacity="1"/><stop offset="0.873874" stop-color="#6D3EA7" stop-opacity="1"/><stop offset="0.882883" stop-color="#6D3DA6" stop-opacity="1"/><stop offset="0.891892" stop-color="#6E3CA6" stop-opacity="1"/><stop offset="0.900901" stop-color="#6E3BA5" stop-opacity="1"/><stop offset="0.90991" stop-color="#6E3AA5" stop-opacity="1"/><stop offset="0.918919" stop-color="#6E39A4" stop-opacity="1"/><stop offset="0.927928" stop-color="#6F38A4" stop-opacity="1"/><stop offset="0.936937" stop-color="#6F37A3" stop-opacity="1"/><stop offset="0.945946" stop-color="#6F36A3" stop-opacity="1"/><stop offset="0.954955" stop-color="#6F35A2" stop-opacity="1"/><stop offset="0.963964" stop-color="#6F34A2" stop-opacity="1"/><stop offset="0.972973" stop-color="#6F33A1" stop-opacity="1"/><stop offset="0.981982" stop-color="#6F32A1" stop-opacity="1"/><stop offset="0.990991" stop-color="#6F31A0" stop-opacity="1"/><stop offset="1" stop-color="#7030A0" stop-opacity="1"/></linearGradient></defs><g transform="translate(-866 -435)"><g><path d="M1524.15 719.804C1520.82 726.25 1517.55 731.433 1514.32 735.354 1511.1 739.275 1506.75 743.276 1501.27 747.358L1533.98 747.358C1530.33 742.954 1527.75 739.006 1526.25 735.515 1524.74 732.024 1523.99 728.237 1523.99 724.155 1523.99 722.329 1524.05 720.879 1524.15 719.804ZM1051.71 646.167C1070.4 658.305 1079.75 675.385 1079.75 697.407 1079.75 722.544 1068.9 740 1047.2 749.775 1057.3 748.164 1066.16 745.075 1073.79 740.51 1081.41 735.944 1087.3 730.171 1091.43 723.188 1095.57 716.206 1097.64 708.471 1097.64 699.985 1097.64 687.846 1093.61 677.05 1085.55 667.597 1077.49 658.144 1066.21 651.001 1051.71 646.167ZM977.914 643.105 977.914 710.942C977.914 724.907 981.109 734.763 987.501 740.51 993.893 746.257 1004.77 749.13 1020.13 749.13 1037.64 749.13 1050.96 744.135 1060.09 734.145 1069.11 724.262 1073.63 711.963 1073.63 697.246 1073.63 691.015 1072.85 685.241 1071.29 679.924 1069.73 674.607 1067.42 669.746 1064.36 665.341 1061.3 660.937 1057.62 657.151 1053.32 653.982 1049.03 650.813 1044.14 648.422 1038.66 646.811 1031.25 644.34 1020.18 643.105 1005.47 643.105ZM1587 579.941 1548.81 667.436 1625.83 667.436ZM1305.12 557.221 1296.42 581.552 1360.87 750.581 1369.73 727.7ZM1599.56 551.904 1590.38 573.012 1652.42 712.714 1654.03 716.259C1657.36 723.457 1659.02 728.72 1659.02 732.05 1659.02 736.67 1656.39 741.772 1651.13 747.358L1693.67 747.358C1688.83 742.846 1684.64 737.663 1681.1 731.809 1677.55 725.954 1673.42 717.817 1668.69 707.397ZM929.896 541.914 938.436 548.52C942.196 551.313 944.559 553.488 945.526 555.046 946.493 556.604 946.976 558.994 946.976 562.216L946.976 567.534 946.976 570.273 946.976 720.932 946.976 723.672 946.976 728.989C946.976 732.212 946.493 734.602 945.526 736.159 944.559 737.717 942.196 739.892 938.436 742.685L932.796 747.036C941.283 745.962 948.372 745.424 954.066 745.424 959.222 745.424 965.936 745.854 974.207 746.714L978.075 747.036 972.435 742.685C968.783 740 966.446 737.851 965.426 736.24 964.405 734.629 963.895 732.212 963.895 728.989L963.895 723.672C963.895 722.705 963.868 722.06 963.814 721.738 963.761 721.416 963.734 721.147 963.734 720.932L963.734 570.273C963.734 569.951 963.761 569.629 963.814 569.306 963.868 568.984 963.895 568.393 963.895 567.534L963.895 562.216C963.895 559.961 964.083 558.188 964.459 556.899 964.835 555.61 965.56 554.401 966.634 553.274 967.708 552.146 969.642 550.561 972.435 548.52L980.975 542.075 975.174 542.558C966.903 543.31 959.652 543.686 953.421 543.686 946.331 543.686 938.49 543.095 929.896 541.914ZM1412.6 541.753C1419.36 545.083 1424.17 548.601 1427.02 552.307 1429.86 556.013 1431.72 561.035 1432.58 567.373 1437.95 556.845 1444.82 548.305 1453.2 541.753ZM1136.09 541.753C1140.07 544.975 1143.48 548.359 1146.32 551.904 1149.17 555.449 1151.86 559.638 1154.38 564.472 1156.91 569.306 1159.78 575.752 1163 583.808L1229.07 750.742 1237.12 727.861 1179.76 578.491C1176.64 570.005 1175.09 563.613 1175.09 559.316 1175.09 555.879 1175.95 552.871 1177.66 550.293 1179.38 547.714 1182.39 544.868 1186.69 541.753ZM1038.34 540.625C1055.42 552.656 1063.96 568.393 1063.96 587.837 1063.96 608.462 1055.9 623.769 1039.79 633.759 1053 629.892 1063.18 623.877 1070.32 615.713 1077.47 607.548 1081.04 597.773 1081.04 586.386 1081.04 574.892 1077.44 565.251 1070.24 557.463 1063.05 549.675 1052.41 544.062 1038.34 540.625ZM1011.43 539.819C1004.45 539.819 998.431 541.108 993.382 543.686 988.333 546.264 984.413 549.97 981.62 554.804 979.149 559.638 977.914 567.319 977.914 577.846L977.914 636.821 1004.02 636.821C1019.49 636.821 1031.3 633.706 1039.47 627.475 1045.05 623.393 1049.51 617.834 1052.84 610.798 1056.17 603.762 1057.84 596.377 1057.84 588.642 1057.84 579.297 1055.85 570.918 1051.87 563.505 1047.9 556.093 1042.37 550.293 1035.28 546.103 1028.19 541.914 1020.24 539.819 1011.43 539.819ZM1117.24 535.63 1221.65 535.63 1221.65 540.625C1212.42 541.162 1205.81 542.129 1201.83 543.525 1193.99 546.103 1190.07 551.152 1190.07 558.672 1190.07 563.291 1191.41 569.145 1194.1 576.235L1244.53 707.88 1306.57 535.63 1311.4 535.63 1377.15 707.075 1420.97 596.377C1424.95 586.386 1426.94 578.007 1426.94 571.24 1426.94 555.234 1414.58 545.029 1389.88 540.625L1389.88 535.63 1475.6 535.63 1475.6 540.464C1468.62 542.934 1462.25 546.587 1456.5 551.421 1450.76 556.255 1445.52 562.512 1440.79 570.193 1436.07 577.873 1431.39 587.353 1426.78 598.632L1362.32 760.893 1357.97 760.893 1293.04 589.931 1231.16 760.893 1226.97 760.893 1157.36 585.581C1153.06 574.839 1149.12 566.54 1145.52 560.686 1141.92 554.831 1137.95 550.4 1133.59 547.392 1129.24 544.384 1123.79 542.129 1117.24 540.625ZM1023.84 532.89C1034.9 532.89 1044.92 534.179 1053.89 536.757 1062.86 539.336 1070.51 543.015 1076.85 547.795 1083.19 552.575 1088.07 558.322 1091.51 565.036 1094.95 571.75 1096.67 579.189 1096.67 587.353 1096.67 600.029 1092.67 610.664 1084.66 619.257 1076.66 627.851 1065.03 634.082 1049.78 637.949 1062.45 639.238 1073.63 642.622 1083.29 648.1 1092.96 653.579 1100.4 660.749 1105.61 669.611 1110.82 678.474 1113.43 688.437 1113.43 699.502 1113.43 708.525 1111.71 716.609 1108.27 723.752 1104.83 730.896 1099.73 737.126 1092.96 742.443 1086.19 747.761 1078.03 751.762 1068.47 754.448 1058.91 757.133 1048.44 758.476 1037.05 758.476 1031.14 758.476 1022.6 757.993 1011.43 757.026 995.101 755.737 983.929 754.931 977.914 754.609 968.138 754.072 959.222 753.803 951.165 753.803 944.828 753.803 937.738 754.018 929.896 754.448L913.299 755.415 910.077 755.576 910.077 750.581C921.463 748.647 929.789 744.189 935.052 737.207 939.027 731.943 941.014 721.684 941.014 706.43L941.014 584.775C941.014 575.644 940.477 568.742 939.403 564.069 938.329 559.397 936.341 555.449 933.441 552.226 928.285 546.211 920.497 542.343 910.077 540.625L910.077 535.63 912.655 535.791 931.991 537.08C938.866 537.509 945.633 537.724 952.293 537.724 957.879 537.724 964.486 537.483 972.113 536.999 979.74 536.516 985.54 536.059 989.515 535.63L1005.79 533.857C1011.59 533.213 1017.61 532.89 1023.84 532.89ZM1601.82 531.44 1606.01 531.44 1683.51 705.625C1683.73 705.732 1683.92 706.027 1684.08 706.511 1684.24 706.994 1684.45 707.505 1684.72 708.042 1684.99 708.579 1685.29 709.17 1685.61 709.814L1692.7 724.477C1696.57 732.319 1700.97 738.227 1705.91 742.202 1710.85 746.176 1717.03 748.969 1724.44 750.581L1724.44 755.576 1621.64 755.576 1621.64 750.581C1630.34 749.936 1636.57 748.916 1640.33 747.519 1648.06 744.619 1651.93 739.57 1651.93 732.373 1651.93 728.828 1650.21 723.027 1646.78 714.97L1628.89 674.204 1545.91 674.204 1536.88 694.829C1532.59 704.926 1530.44 713.252 1530.44 719.804 1530.44 725.39 1531.7 730.197 1534.22 734.226 1536.75 738.254 1540.51 741.584 1545.5 744.216 1550.5 746.848 1557.08 748.969 1565.24 750.581L1565.24 755.576 1481.61 755.576 1481.61 750.742C1491.71 747.304 1500.39 741.289 1507.64 732.695 1514.89 724.101 1522.54 710.727 1530.6 692.573Z" fill="url(#fill0)" fill-rule="evenodd"/><text fill="#000000" fill-opacity="0" font-family="Arial,Arial_MSFontService,sans-serif" font-size="229.453" direction="ltr" writing-mode="lr-tb" x="910.077" y="732.212">BWA</text></g></g></svg>